<?xml version="1.0" encoding="UTF-8" standalone="no"?>
<svg
   id="svg"
   version="1.1"
   width="800"
   height="800"
   sodipodi:docname="lineart_right.svg"
   inkscape:version="1.3.2 (091e20e, 2023-11-25, custom)"
   xmlns:inkscape="http://www.inkscape.org/namespaces/inkscape"
   xmlns:sodipodi="http://sodipodi.sourceforge.net/DTD/sodipodi-0.dtd"
   xmlns="http://www.w3.org/2000/svg"
   xmlns:svg="http://www.w3.org/2000/svg">
  <defs
     id="defs1">
    <clipPath
       clipPathUnits="userSpaceOnUse"
       id="clipPath1">
      <rect
         style="fill:none;fill-opacity:1;stroke:#000000;stroke-width:5.68011;stroke-linejoin:round;stroke-dasharray:none;stroke-opacity:1"
         id="rect2"
         width="744.31989"
         height="744.31989"
         x="27.840057"
         y="27.840057" />
    </clipPath>
  </defs>
  <sodipodi:namedview
     id="namedview1"
     pagecolor="#ffffff"
     bordercolor="#000000"
     borderopacity="0.25"
     inkscape:showpageshadow="2"
     inkscape:pageopacity="0.0"
     inkscape:pagecheckerboard="0"
     inkscape:deskcolor="#d1d1d1"
     inkscape:zoom="0.97125"
     inkscape:cx="396.3964"
     inkscape:cy="386.61519"
     inkscape:window-width="1920"
     inkscape:window-height="991"
     inkscape:window-x="-9"
     inkscape:window-y="-9"
     inkscape:window-maximized="1"
     inkscape:current-layer="svg" />
  <path
     d="M799.495 398.500 C 799.495 617.950,799.610 707.576,799.750 597.669 C 799.890 487.761,799.890 308.211,799.750 198.669 C 799.610 89.126,799.495 179.050,799.495 398.500 M376.000 144.972 C 368.118 145.781,357.237 147.989,348.000 150.654 C 337.887 153.572,320.539 159.049,317.000 160.441 C 315.075 161.198,311.025 162.724,308.000 163.832 C 299.675 166.880,288.746 171.003,286.500 171.941 C 285.400 172.401,281.575 173.983,278.000 175.458 C 269.000 179.172,268.734 179.283,257.500 184.054 C 247.284 188.393,219.294 200.925,208.500 205.994 C 185.129 216.969,178.017 220.411,158.000 230.434 C 105.448 256.748,79.028 272.182,64.709 284.932 C 60.181 288.964,57.000 294.721,57.000 298.883 C 57.000 300.513,55.961 303.119,54.691 304.673 C 43.518 318.353,44.917 331.476,60.804 362.000 C 71.565 382.677,76.316 391.609,77.824 394.000 C 79.454 396.586,81.982 401.178,87.455 411.500 C 89.204 414.800,92.855 421.239,95.568 425.810 C 98.281 430.380,101.850 436.624,103.500 439.685 C 107.533 447.165,110.429 448.815,116.722 447.216 C 121.190 446.080,142.533 435.777,151.500 430.427 C 153.700 429.114,156.084 427.750,156.798 427.395 C 158.298 426.649,160.100 428.760,163.060 434.727 C 164.213 437.051,166.505 440.089,168.155 441.477 C 172.813 445.396,176.952 444.864,187.410 438.998 C 192.311 436.249,196.433 434.000,196.570 434.000 C 196.708 434.000,199.899 432.266,203.660 430.147 C 207.422 428.028,213.200 424.823,216.500 423.025 C 224.132 418.867,227.659 415.563,229.089 411.230 C 230.137 408.056,229.892 407.147,225.907 399.433 C 223.533 394.837,221.795 390.893,222.045 390.668 C 222.295 390.443,229.250 386.871,237.500 382.729 C 251.172 375.866,258.156 372.550,271.000 366.826 C 273.475 365.722,276.482 364.351,277.683 363.777 C 281.121 362.134,282.333 363.288,284.885 370.635 C 287.694 378.719,290.061 381.638,295.011 383.122 C 298.040 384.029,299.460 383.876,303.571 382.199 C 306.282 381.093,313.000 378.539,318.500 376.524 C 329.599 372.457,332.995 371.179,340.883 368.101 C 343.844 366.945,346.835 366.000,347.530 366.000 C 348.224 366.000,350.189 364.409,351.896 362.465 C 355.750 358.076,355.872 354.699,352.512 345.435 C 351.144 341.662,350.356 338.297,350.762 337.957 C 353.188 335.923,380.722 330.187,390.000 329.783 L 396.500 329.500 396.558 336.000 C 396.630 343.975,398.426 347.955,403.001 350.273 C 406.137 351.862,409.298 352.017,433.500 351.773 C 458.694 351.518,460.681 351.366,463.202 349.500 C 467.060 346.645,468.167 343.268,468.344 333.815 L 468.500 325.500 475.982 325.815 C 480.097 325.989,483.565 326.232,483.690 326.356 C 483.948 326.614,485.998 339.986,488.964 360.750 C 495.452 406.166,495.207 404.409,499.941 439.500 C 503.277 464.232,507.839 504.021,510.088 528.000 C 510.733 534.875,511.576 556.475,511.961 576.000 C 512.645 610.717,512.716 611.632,515.140 617.494 C 516.951 621.875,518.679 624.230,521.559 626.245 C 528.801 631.311,534.206 632.189,561.321 632.707 C 586.881 633.195,591.418 632.755,604.500 628.516 C 606.700 627.803,612.100 626.213,616.500 624.981 C 620.900 623.749,626.525 622.128,629.000 621.379 C 633.909 619.893,652.239 616.566,661.000 615.571 C 664.025 615.228,668.750 614.532,671.500 614.026 C 674.250 613.519,682.800 612.151,690.500 610.984 C 729.113 605.135,738.472 602.554,741.987 596.790 C 744.333 592.941,744.621 583.610,742.566 578.000 C 741.316 574.589,741.378 574.411,745.025 571.000 C 749.683 566.642,751.537 559.176,750.594 548.560 C 747.415 512.727,741.510 482.572,734.933 468.582 C 732.809 464.062,730.775 462.469,724.750 460.604 C 723.665 460.269,723.000 459.065,723.000 457.437 C 723.000 453.565,719.004 440.926,716.769 437.727 C 713.648 433.262,708.554 431.323,698.492 430.772 C 691.376 430.382,688.382 429.720,684.240 427.622 C 673.928 422.396,658.216 404.019,637.967 373.500 C 632.858 365.800,627.774 358.489,626.669 357.254 C 625.563 356.019,624.884 354.782,625.160 354.507 C 625.436 354.231,628.325 354.502,631.581 355.109 C 640.529 356.778,648.703 355.752,651.896 352.558 L 654.500 349.954 654.500 284.227 C 654.500 216.881,654.025 206.462,650.341 193.088 C 648.859 187.707,644.487 178.419,643.006 177.504 C 642.580 177.240,641.916 174.925,641.531 172.359 C 639.958 161.871,634.401 157.642,620.038 156.004 C 609.050 154.751,535.802 154.812,530.148 156.079 C 524.883 157.259,521.355 160.064,519.415 164.612 C 517.869 168.239,515.087 168.971,502.785 168.989 C 495.789 168.999,494.963 168.791,493.913 166.750 C 488.559 156.341,479.637 154.569,440.500 156.144 L 424.500 156.787 419.645 153.232 C 409.709 145.954,394.495 143.075,376.000 144.972 M400.071 149.428 C 407.619 151.028,417.680 155.027,417.862 156.500 C 417.940 157.135,413.517 157.374,405.729 157.153 C 398.554 156.950,390.872 157.318,387.197 158.041 C 381.840 159.095,380.424 159.855,377.538 163.226 C 375.678 165.399,373.771 168.824,373.299 170.838 C 372.445 174.482,372.405 174.506,364.970 175.814 C 347.270 178.929,331.199 182.074,327.301 183.187 L 323.101 184.386 318.801 179.808 C 313.355 174.011,310.342 173.329,301.403 175.871 C 285.995 180.253,245.790 195.699,236.373 200.855 C 235.343 201.419,230.450 203.779,225.500 206.099 C 211.700 212.567,207.182 215.806,204.414 221.217 C 203.086 223.811,202.000 227.287,202.000 228.942 C 202.000 231.790,201.384 232.249,190.451 237.545 L 178.902 243.139 175.394 241.070 C 168.928 237.255,163.488 238.405,140.500 248.451 C 133.350 251.576,122.775 256.690,117.000 259.816 C 111.225 262.942,105.825 265.790,105.000 266.144 C 101.661 267.578,85.076 277.808,78.797 282.306 C 73.594 286.034,71.508 288.307,69.474 292.463 C 67.662 296.167,65.942 298.195,63.895 299.043 C 62.268 299.718,60.694 300.027,60.398 299.732 C 58.256 297.589,70.957 283.146,79.500 278.010 C 81.700 276.688,83.725 275.300,84.000 274.926 C 84.697 273.978,111.224 258.855,124.500 251.836 C 142.963 242.075,196.456 215.715,218.500 205.515 C 222.350 203.733,228.425 200.916,232.000 199.253 C 235.575 197.591,243.450 194.125,249.500 191.551 C 255.550 188.977,261.400 186.482,262.500 186.006 C 289.462 174.336,331.071 159.186,349.000 154.510 C 354.521 153.070,372.890 149.454,378.500 148.702 C 385.123 147.814,393.844 148.108,400.071 149.428 M433.505 160.197 C 437.352 160.255,446.800 159.979,454.500 159.585 C 469.634 158.810,481.786 159.975,485.765 162.581 C 493.197 167.451,494.287 177.571,493.837 237.500 L 493.500 282.500 489.000 282.834 C 486.525 283.017,480.825 282.867,476.334 282.501 L 468.168 281.834 467.833 270.667 C 467.466 258.460,466.180 254.408,462.000 252.294 C 458.465 250.506,406.575 250.493,403.000 252.279 C 398.586 254.484,397.003 259.339,397.002 270.678 L 397.000 280.856 391.250 281.528 C 388.087 281.897,383.700 282.582,381.500 283.050 C 379.079 283.564,377.123 283.523,376.545 282.945 C 375.174 281.574,374.605 176.362,375.964 175.522 C 376.534 175.170,377.000 173.991,377.000 172.901 C 377.000 171.812,377.879 169.197,378.954 167.091 C 381.396 162.304,385.647 161.038,399.693 160.912 C 405.087 160.864,411.750 160.465,414.500 160.025 C 417.250 159.586,421.077 159.421,423.005 159.659 C 424.933 159.898,429.658 160.140,433.505 160.197 M628.074 160.823 C 633.245 162.521,635.950 165.950,638.218 173.680 C 640.078 180.018,640.254 184.266,640.707 233.779 L 641.195 287.058 627.347 286.779 L 613.500 286.500 613.000 273.269 C 612.515 260.445,612.415 259.952,609.729 257.269 L 606.958 254.500 579.660 254.206 C 562.790 254.024,551.339 254.301,549.682 254.931 C 544.599 256.863,543.008 261.236,543.004 273.283 L 543.000 284.066 531.750 283.783 L 520.500 283.500 519.700 264.500 C 519.260 254.050,519.110 228.850,519.367 208.500 C 519.829 171.853,519.857 171.457,522.221 167.000 C 526.654 158.645,524.986 158.876,578.000 159.288 C 609.986 159.536,625.616 160.015,628.074 160.823 M515.950 183.000 C 515.702 188.775,515.632 213.667,515.793 238.316 L 516.086 283.133 506.920 282.816 L 497.753 282.500 497.519 231.000 C 497.390 202.675,496.948 178.056,496.535 176.292 L 495.785 173.084 504.143 172.729 C 517.851 172.147,516.466 170.942,515.950 183.000 M316.962 183.250 C 319.732 186.137,321.998 189.145,321.999 189.934 C 322.000 190.723,322.866 193.198,323.924 195.434 C 328.186 204.440,341.000 238.416,341.000 240.711 C 341.000 241.273,341.841 243.931,342.868 246.617 C 343.895 249.302,345.511 253.975,346.457 257.000 C 347.404 260.025,348.976 264.750,349.951 267.500 C 352.302 274.134,354.700 281.884,355.403 285.118 C 355.937 287.575,355.621 287.837,350.236 289.394 C 344.404 291.081,337.891 293.230,334.779 294.493 C 332.866 295.270,332.077 293.836,327.435 281.144 C 324.999 274.485,324.364 273.617,320.729 271.990 C 317.034 270.336,316.308 270.312,311.607 271.693 C 308.798 272.519,304.250 274.094,301.500 275.194 C 295.994 277.396,292.267 278.808,284.000 281.824 C 261.415 290.063,261.175 290.213,260.329 296.672 C 259.961 299.483,260.781 303.123,263.414 310.369 C 265.386 315.797,266.997 320.747,266.994 321.369 C 266.989 322.475,250.358 331.061,248.461 330.937 C 247.554 330.878,243.885 323.711,239.025 312.500 C 237.832 309.750,236.418 306.685,235.882 305.689 C 235.346 304.693,233.185 299.968,231.080 295.189 C 228.975 290.410,226.248 284.250,225.020 281.500 C 223.793 278.750,222.095 274.925,221.247 273.000 C 220.399 271.075,219.338 268.745,218.890 267.822 C 216.691 263.303,207.770 239.453,206.052 233.500 C 205.893 232.950,205.816 230.576,205.882 228.224 C 205.982 224.598,206.651 223.297,210.276 219.671 C 212.628 217.319,216.565 214.384,219.026 213.148 C 221.487 211.913,224.175 210.482,225.000 209.970 C 231.960 205.648,258.783 194.324,281.781 185.999 C 308.906 176.180,310.091 176.087,316.962 183.250 M371.568 231.333 L 371.637 283.663 366.109 284.823 C 363.069 285.460,360.291 285.649,359.935 285.241 C 359.580 284.833,355.864 274.150,351.678 261.500 C 338.814 222.628,334.670 211.064,328.592 197.083 C 326.580 192.454,325.286 188.377,325.717 188.022 C 326.774 187.152,338.990 184.487,353.000 182.069 C 364.680 180.054,368.703 179.380,370.500 179.138 C 371.155 179.049,371.524 197.062,371.568 231.333 M646.365 192.741 C 648.768 202.993,650.024 221.276,650.693 255.750 L 651.300 287.000 648.244 287.000 L 645.188 287.000 644.702 241.750 C 644.408 214.355,643.783 194.582,643.117 191.639 C 642.034 186.844,642.356 184.484,643.959 185.475 C 644.411 185.754,645.493 189.024,646.365 192.741 M205.072 241.292 C 206.230 245.614,216.320 271.787,217.995 274.811 C 218.509 275.740,219.884 278.750,221.051 281.500 C 223.835 288.063,226.486 293.915,230.619 302.623 C 232.479 306.540,234.000 310.009,234.000 310.331 C 234.000 310.653,236.250 315.593,239.000 321.308 C 241.750 327.023,244.000 331.986,244.000 332.338 C 244.000 332.927,228.670 341.000,227.552 341.000 C 226.995 341.000,224.156 334.947,216.530 317.500 C 205.389 292.010,188.206 256.907,183.932 250.905 C 182.869 249.412,182.000 247.705,182.000 247.112 C 182.000 245.901,202.091 236.014,203.223 236.667 C 203.620 236.897,204.453 238.978,205.072 241.292 M175.149 245.255 C 180.260 249.586,194.601 276.890,209.682 311.000 C 211.020 314.025,212.531 317.400,213.041 318.500 C 213.551 319.600,216.184 325.561,218.892 331.747 L 223.816 342.994 221.158 344.833 C 216.555 348.016,201.725 355.108,200.588 354.670 C 199.990 354.439,198.019 351.382,196.208 347.875 C 187.257 330.543,186.772 330.000,180.210 330.000 C 177.017 330.000,173.969 331.007,169.151 333.655 C 142.077 348.532,130.259 355.412,128.750 357.176 C 125.737 360.698,126.479 367.086,130.862 375.360 C 132.986 379.369,135.500 383.833,136.448 385.281 C 137.397 386.728,137.930 388.304,137.634 388.783 C 137.338 389.261,133.488 391.536,129.078 393.837 L 121.060 398.022 119.674 395.761 C 118.911 394.517,116.177 389.675,113.598 385.000 C 111.020 380.325,108.495 375.825,107.989 375.000 C 107.482 374.175,105.753 371.025,104.146 368.000 C 102.539 364.975,98.016 356.650,94.095 349.500 C 84.083 331.246,75.186 313.085,72.529 305.482 L 70.269 299.013 72.542 294.106 C 75.811 287.050,85.255 280.438,113.500 265.432 C 126.351 258.604,130.234 256.747,146.000 249.891 C 163.251 242.388,170.421 241.248,175.149 245.255 M459.000 254.892 C 463.847 256.235,464.087 258.190,464.516 299.757 C 464.776 324.964,464.552 339.642,463.875 341.767 C 462.016 347.599,459.997 348.000,432.500 348.000 C 406.025 348.000,402.880 347.470,401.085 342.702 C 399.781 339.241,400.621 260.577,401.989 258.021 C 402.617 256.847,404.114 255.491,405.315 255.007 C 407.875 253.976,455.326 253.874,459.000 254.892 M604.971 258.752 C 607.005 259.776,608.724 261.535,609.122 263.000 C 610.233 267.092,610.105 341.082,608.979 345.135 C 607.390 350.855,605.778 351.138,576.700 350.799 C 551.539 350.506,551.009 350.457,548.776 348.223 L 546.500 345.946 546.217 305.761 C 546.008 276.133,546.250 264.812,547.138 262.668 C 549.233 257.609,552.121 257.082,578.000 257.041 C 598.432 257.008,601.953 257.231,604.971 258.752 M320.698 276.250 C 321.824 277.488,323.954 281.650,325.431 285.500 C 326.909 289.350,329.042 294.725,330.171 297.446 C 331.300 300.166,334.599 309.166,337.502 317.446 C 340.405 325.725,343.763 334.750,344.965 337.500 C 348.318 345.170,351.004 353.209,350.967 355.465 C 350.900 359.536,347.512 361.605,331.497 367.356 C 322.699 370.516,313.475 373.928,311.000 374.939 C 301.797 378.699,300.847 379.000,298.175 379.000 C 293.403 379.000,291.463 376.584,287.570 365.792 C 285.528 360.132,282.962 353.025,281.868 350.000 C 280.774 346.975,279.278 343.150,278.543 341.500 C 276.309 336.484,273.466 328.652,265.401 305.287 C 263.099 298.619,263.024 297.854,264.416 295.162 C 265.663 292.752,267.692 291.608,276.211 288.514 C 281.870 286.458,289.200 283.750,292.500 282.494 C 295.800 281.239,302.100 278.842,306.500 277.169 C 316.212 273.474,318.064 273.354,320.698 276.250 M396.543 287.316 C 396.863 288.590,396.984 291.853,396.812 294.566 L 396.500 299.500 387.000 300.826 C 381.775 301.555,370.075 303.961,361.000 306.172 C 351.925 308.384,343.375 310.406,342.000 310.666 C 339.710 311.099,339.316 310.608,337.316 304.837 C 335.692 300.149,335.436 298.341,336.316 297.775 C 340.472 295.105,362.859 289.429,378.500 287.080 C 395.358 284.549,395.850 284.555,396.543 287.316 M514.250 287.630 L 542.000 288.318 542.000 300.659 C 542.000 307.447,541.693 313.000,541.318 313.000 C 540.943 313.000,537.231 312.138,533.068 311.084 C 519.679 307.694,489.852 302.441,478.500 301.474 C 467.678 300.552,468.000 300.794,468.000 293.599 C 468.000 290.153,468.337 286.981,468.750 286.551 C 469.163 286.121,473.325 286.032,478.000 286.355 C 482.675 286.677,498.988 287.251,514.250 287.630 M636.217 291.000 L 651.184 291.000 650.842 314.918 C 650.654 328.073,650.184 339.151,649.797 339.537 C 649.188 340.146,637.150 337.302,619.250 332.319 L 614.000 330.858 614.000 311.096 C 614.000 300.226,614.334 290.999,614.743 290.590 C 615.152 290.182,616.783 290.107,618.368 290.424 C 619.953 290.741,627.985 291.000,636.217 291.000 M69.476 307.250 C 71.260 313.363,80.131 331.930,88.738 347.565 C 92.048 353.579,96.083 360.975,97.704 364.000 C 104.105 375.946,110.642 387.558,114.720 394.229 C 115.974 396.279,117.000 398.378,117.000 398.892 C 117.000 399.951,96.576 411.000,94.619 411.000 C 93.346 411.000,77.358 384.493,69.588 369.500 C 68.733 367.850,66.164 363.125,63.880 359.000 C 61.596 354.875,57.988 347.119,55.863 341.765 C 52.579 333.489,52.000 330.899,52.000 324.475 C 52.000 316.305,53.791 311.327,58.153 307.372 C 60.477 305.264,65.830 302.117,67.222 302.040 C 67.619 302.018,68.633 304.363,69.476 307.250 M397.000 314.448 L 397.000 324.777 393.750 325.354 C 391.962 325.671,388.025 326.206,385.000 326.543 C 377.054 327.428,361.265 330.673,355.802 332.544 C 348.250 335.130,347.101 334.527,344.283 326.500 C 340.340 315.272,340.341 315.362,344.154 314.190 C 362.859 308.440,393.294 302.347,396.250 303.760 C 396.663 303.957,397.000 308.766,397.000 314.448 M493.000 307.101 C 504.031 308.995,522.241 312.478,536.000 315.325 L 542.500 316.670 543.044 332.085 C 543.343 340.563,543.971 348.331,544.438 349.347 C 544.906 350.364,547.203 352.015,549.543 353.018 C 553.380 354.663,553.866 355.267,554.491 359.171 C 554.873 361.552,556.013 367.100,557.024 371.500 C 558.036 375.900,559.597 382.875,560.493 387.000 C 564.350 404.756,569.634 421.326,575.034 432.603 C 579.268 441.444,587.204 449.858,594.593 453.342 C 603.898 457.729,608.599 460.492,610.000 462.400 C 613.834 467.621,615.260 473.488,615.757 486.088 L 616.254 498.676 607.877 500.242 C 603.270 501.104,594.651 502.627,588.724 503.627 C 579.445 505.193,577.570 505.839,575.231 508.280 C 571.137 512.554,571.529 517.983,578.537 554.023 C 579.342 558.160,580.003 562.660,580.006 564.023 C 580.016 568.655,582.181 574.335,585.017 577.171 C 588.415 580.569,591.425 580.748,604.141 578.310 C 608.988 577.381,613.142 576.819,613.371 577.060 C 614.127 577.860,611.994 597.373,610.370 604.500 C 609.493 608.350,607.476 613.805,605.888 616.622 C 604.300 619.439,603.000 622.450,603.000 623.313 C 603.000 627.432,592.132 629.007,564.000 628.965 C 531.075 628.916,524.231 627.059,518.775 616.692 C 516.675 612.701,516.537 610.915,515.907 579.500 C 515.102 539.426,513.162 514.822,506.956 466.000 C 505.872 457.475,504.298 445.100,503.457 438.500 C 501.280 421.409,496.161 384.286,492.908 362.000 C 487.115 322.308,487.587 324.604,484.943 323.266 C 483.599 322.586,479.238 322.023,475.250 322.015 L 468.000 322.000 468.000 312.920 L 468.000 303.841 474.750 304.484 C 478.462 304.837,486.675 306.015,493.000 307.101 M271.389 333.708 C 273.301 339.297,272.977 341.000,270.000 341.000 C 268.965 341.000,267.893 341.364,267.619 341.808 C 267.344 342.252,262.705 344.806,257.310 347.482 C 251.914 350.158,239.581 356.770,229.903 362.174 C 220.225 367.578,211.900 371.995,211.403 371.988 C 210.030 371.970,203.770 360.042,204.346 358.541 C 204.623 357.818,209.496 354.896,215.175 352.046 C 220.854 349.197,227.975 345.572,231.000 343.990 C 234.025 342.409,243.475 337.738,252.000 333.611 C 263.735 327.930,267.756 326.398,268.553 327.304 C 269.133 327.962,270.409 330.843,271.389 333.708 M183.828 334.750 C 184.955 335.712,187.088 338.750,188.568 341.500 C 191.143 346.285,204.105 368.872,206.072 372.000 C 207.020 373.509,208.324 376.220,209.439 379.000 C 209.769 379.825,211.043 382.167,212.270 384.204 C 220.635 398.097,225.000 406.646,225.000 409.137 C 225.000 413.033,222.956 414.812,210.878 421.431 C 205.170 424.559,199.825 427.535,199.000 428.044 C 198.175 428.553,196.150 429.649,194.500 430.478 C 192.850 431.307,188.350 433.772,184.500 435.955 C 177.172 440.111,173.642 440.804,170.802 438.646 C 169.868 437.936,166.530 432.438,163.384 426.428 C 160.238 420.418,156.390 413.619,154.832 411.320 C 153.275 409.021,152.000 406.880,152.000 406.562 C 152.000 405.996,147.514 397.831,135.842 377.151 C 132.491 371.215,130.000 365.581,130.000 363.940 C 130.000 360.567,132.677 357.788,139.000 354.594 C 141.475 353.344,150.700 348.272,159.500 343.323 C 180.244 331.658,180.217 331.667,183.828 334.750 M627.233 338.006 C 650.615 344.243,651.000 344.377,651.000 346.238 C 651.000 347.207,650.100 348.900,649.000 350.000 C 647.214 351.786,645.667 352.000,634.559 352.000 C 627.575 352.000,621.854 351.573,621.517 351.027 C 621.186 350.492,619.135 349.575,616.958 348.989 L 613.000 347.923 613.000 341.461 C 613.000 336.417,613.325 335.000,614.483 335.000 C 615.299 335.000,621.037 336.353,627.233 338.006 M276.621 345.750 C 276.984 347.262,277.829 349.625,278.500 351.000 C 279.171 352.375,280.000 354.673,280.343 356.107 C 280.926 358.545,280.528 358.898,274.233 361.540 C 263.356 366.105,249.468 372.597,234.652 380.042 C 227.036 383.869,220.212 387.000,219.488 387.000 C 218.163 387.000,212.993 378.720,213.008 376.624 C 213.013 376.006,215.151 374.344,217.758 372.932 C 220.366 371.519,227.450 367.618,233.500 364.263 C 250.015 355.103,273.336 343.104,274.731 343.049 C 275.408 343.022,276.259 344.238,276.621 345.750 M620.011 354.640 C 620.993 355.663,627.972 365.725,635.520 377.000 C 643.068 388.275,652.189 401.278,655.790 405.896 C 664.634 417.238,675.900 428.145,682.089 431.356 C 686.563 433.678,688.356 434.000,696.792 434.000 C 708.545 434.000,708.269 435.820,696.333 437.027 C 688.747 437.794,683.971 438.800,658.500 444.997 C 651.900 446.603,644.700 448.220,642.500 448.590 C 640.300 448.960,637.778 449.635,636.895 450.089 C 636.012 450.544,632.237 451.403,628.506 451.999 C 622.113 453.020,621.516 452.947,618.112 450.725 C 616.125 449.428,611.423 446.940,607.661 445.195 C 599.149 441.246,593.636 435.558,588.758 425.693 C 585.235 418.569,578.902 401.441,577.040 394.000 C 576.558 392.075,574.999 386.000,573.574 380.500 C 571.032 370.683,568.002 357.228,568.001 355.750 C 568.000 355.337,576.212 354.984,586.250 354.965 C 600.558 354.937,605.040 354.608,607.000 353.443 C 610.278 351.495,617.640 352.172,620.011 354.640 M564.620 360.500 C 565.319 363.250,567.080 370.450,568.532 376.500 C 571.492 388.838,571.433 388.630,576.998 406.346 C 585.022 431.890,592.205 442.104,607.436 449.626 C 617.623 454.658,623.226 459.675,626.600 466.786 C 629.643 473.198,634.000 488.107,634.000 492.107 C 634.000 494.455,633.532 494.792,629.501 495.345 C 627.026 495.684,623.940 496.228,622.643 496.553 C 620.294 497.143,620.283 497.103,619.703 485.823 C 618.649 465.349,615.117 459.224,600.173 451.955 C 585.762 444.946,577.555 434.291,571.710 415.000 C 568.187 403.376,566.220 396.317,565.159 391.500 C 561.846 376.457,559.059 362.991,558.468 359.174 C 557.807 354.900,557.832 354.852,560.573 355.174 C 562.984 355.457,563.514 356.155,564.620 360.500 M143.179 399.000 C 144.792 402.025,146.537 404.928,147.056 405.450 C 149.068 407.475,148.009 410.625,144.750 412.309 C 142.963 413.233,138.800 415.696,135.500 417.784 C 109.485 434.240,106.825 435.428,105.307 431.273 C 104.952 430.298,103.216 427.214,101.452 424.421 C 99.687 421.627,97.949 418.415,97.590 417.284 C 96.869 415.012,97.545 414.564,118.500 403.424 C 124.550 400.207,131.300 396.574,133.500 395.350 C 135.700 394.126,138.118 393.208,138.873 393.312 C 139.629 393.415,141.566 395.975,143.179 399.000 M152.995 415.250 C 153.807 416.488,155.015 418.730,155.681 420.234 C 156.864 422.909,156.754 423.049,150.695 426.647 C 140.441 432.737,122.687 441.714,118.299 443.029 C 112.884 444.651,109.397 443.669,107.493 439.986 C 105.959 437.019,105.967 437.000,108.724 436.968 C 110.328 436.950,115.511 434.448,121.000 431.043 C 126.225 427.802,134.448 422.806,139.273 419.943 C 144.098 417.079,148.287 414.345,148.582 413.868 C 149.532 412.330,151.480 412.941,152.995 415.250 M713.557 440.446 C 716.030 444.220,720.190 460.265,718.902 461.061 C 718.311 461.426,714.744 461.983,710.975 462.299 C 698.382 463.355,673.789 468.516,652.184 474.638 C 634.852 479.548,634.059 479.559,634.015 474.877 C 633.996 472.778,630.261 464.261,627.864 460.846 C 625.182 457.026,625.495 456.336,630.250 455.579 C 632.587 455.207,641.025 453.333,649.000 451.415 C 665.586 447.425,672.812 445.738,685.500 442.893 C 690.450 441.783,696.975 440.272,700.000 439.534 C 708.689 437.416,711.704 437.618,713.557 440.446 M728.850 466.527 C 730.993 468.330,732.566 471.270,734.338 476.777 C 738.835 490.761,743.155 512.507,745.477 532.845 C 748.769 561.688,746.695 569.953,736.000 570.609 C 734.075 570.727,727.325 571.766,721.000 572.918 C 714.675 574.069,702.750 576.146,694.500 577.532 C 686.250 578.919,674.325 580.929,668.000 582.000 C 661.675 583.072,654.925 584.072,653.000 584.224 L 649.500 584.500 648.638 578.762 C 647.563 571.601,648.146 570.000,651.829 570.000 C 653.420 570.000,659.172 569.132,664.611 568.071 C 670.050 567.010,676.255 565.852,678.400 565.497 C 680.730 565.112,683.449 563.705,685.150 562.003 C 689.513 557.641,689.260 553.918,681.966 515.000 C 680.884 509.225,679.999 503.503,679.999 502.284 C 680.001 497.886,676.839 493.153,672.827 491.547 C 668.671 489.884,663.146 490.314,648.185 493.461 C 638.210 495.560,638.359 495.598,637.649 490.750 C 637.307 488.413,636.765 485.570,636.445 484.434 C 635.929 482.603,636.584 482.188,642.181 480.793 C 645.657 479.927,653.675 477.877,660.000 476.239 C 676.460 471.974,683.792 470.404,698.500 467.999 C 705.650 466.830,713.525 465.514,716.000 465.074 C 723.829 463.684,725.726 463.899,728.850 466.527 M673.479 496.388 C 674.793 497.702,676.089 500.289,676.359 502.138 C 677.817 512.105,680.434 527.713,682.157 536.718 C 683.233 542.339,684.200 549.451,684.306 552.523 C 684.571 560.164,683.309 560.953,666.250 563.816 C 658.687 565.085,649.983 566.774,646.907 567.569 C 643.831 568.365,638.206 569.444,634.407 569.968 C 623.935 571.412,614.622 572.890,602.694 574.998 C 595.380 576.291,591.114 576.614,589.492 575.997 C 586.651 574.917,583.996 570.220,584.010 566.300 C 584.015 564.760,583.150 559.000,582.086 553.500 C 579.247 538.819,577.137 526.271,576.410 519.750 C 575.397 510.654,576.431 509.737,590.679 507.100 C 614.795 502.637,640.736 498.048,648.500 496.872 C 652.900 496.205,658.525 495.347,661.000 494.964 C 669.196 493.695,670.991 493.900,673.479 496.388 M645.021 577.250 C 645.032 579.587,645.693 586.900,646.490 593.500 C 647.286 600.100,647.952 607.096,647.969 609.046 L 648.000 612.593 640.250 614.359 C 632.504 616.123,623.583 618.648,612.746 622.144 C 605.276 624.554,604.209 624.484,606.709 621.750 C 611.714 616.276,614.893 605.698,616.391 589.536 L 617.500 577.571 627.500 575.377 C 633.000 574.170,639.188 573.141,641.250 573.091 L 645.000 573.000 645.021 577.250 M738.670 579.500 C 740.752 587.560,740.402 593.274,737.668 595.842 C 735.149 598.209,725.417 602.000,721.861 602.000 C 720.657 602.000,715.809 602.661,711.086 603.470 C 706.364 604.278,696.200 605.881,688.500 607.032 C 680.800 608.183,670.611 609.771,665.857 610.562 C 651.339 612.977,652.389 613.593,651.688 602.250 C 651.356 596.888,650.788 591.487,650.425 590.250 C 649.839 588.246,650.119 588.000,652.984 588.000 C 654.753 588.000,661.443 587.090,667.851 585.978 C 674.258 584.865,684.900 583.048,691.500 581.939 C 712.377 578.430,721.326 576.828,727.500 575.495 C 736.594 573.530,737.182 573.741,738.670 579.500 M200.831 799.750 C 310.464 799.890,489.564 799.890,598.831 799.750 C 708.099 799.610,618.400 799.495,399.500 799.495 C 180.600 799.495,91.199 799.610,200.831 799.750 "
     stroke="none"
     fill="#000000"
     fill-rule="evenodd"
     id="path1"
     clip-path="url(#clipPath1)"
     style="fill:#ffffff;fill-opacity:1" />
</svg>
