<?xml version="1.0" encoding="UTF-8" standalone="no"?>
<svg
   id="svg"
   version="1.1"
   width="800"
   height="800"
   sodipodi:docname="lineart_left.svg"
   inkscape:version="1.3.2 (091e20e, 2023-11-25, custom)"
   xmlns:inkscape="http://www.inkscape.org/namespaces/inkscape"
   xmlns:sodipodi="http://sodipodi.sourceforge.net/DTD/sodipodi-0.dtd"
   xmlns="http://www.w3.org/2000/svg"
   xmlns:svg="http://www.w3.org/2000/svg">
  <defs
     id="defs1">
    <clipPath
       clipPathUnits="userSpaceOnUse"
       id="clipPath1">
      <rect
         style="fill:none;fill-opacity:1;stroke:#000000;stroke-width:5.68011;stroke-linejoin:round;stroke-dasharray:none;stroke-opacity:1"
         id="rect2"
         width="744.31989"
         height="744.31989"
         x="27.840057"
         y="27.840057" />
    </clipPath>
  </defs>
  <sodipodi:namedview
     id="namedview1"
     pagecolor="#ffffff"
     bordercolor="#000000"
     borderopacity="0.25"
     inkscape:showpageshadow="2"
     inkscape:pageopacity="0.0"
     inkscape:pagecheckerboard="0"
     inkscape:deskcolor="#d1d1d1"
     inkscape:zoom="0.97125"
     inkscape:cx="396.3964"
     inkscape:cy="386.61519"
     inkscape:window-width="1920"
     inkscape:window-height="991"
     inkscape:window-x="-9"
     inkscape:window-y="-9"
     inkscape:window-maximized="1"
     inkscape:current-layer="svg" />
  <path
     d="m 799.495,398.5 c 0,219.45 0.115,309.076 0.255,199.169 0.14,-109.908 0.14,-289.458 0,-399 C 799.61,89.126 799.495,179.05 799.495,398.5 M 376,144.972 c -7.882,0.809 -18.763,3.017 -28,5.682 -10.113,2.918 -27.461,8.395 -31,9.787 -1.925,0.757 -5.975,2.283 -9,3.391 -8.325,3.048 -19.254,7.171 -21.5,8.109 -1.1,0.46 -4.925,2.042 -8.5,3.517 -9,3.714 -9.266,3.825 -20.5,8.596 -10.216,4.339 -38.206,16.871 -49,21.94 -23.371,10.975 -30.483,14.417 -50.5,24.44 -52.552,26.314 -78.972,41.748 -93.291,54.498 -4.528,4.032 -7.709,9.789 -7.709,13.951 0,1.63 -1.039,4.236 -2.309,5.79 -11.173,13.68 -9.774,26.803 6.113,57.327 10.761,20.677 15.512,29.609 17.02,32 1.63,2.586 4.158,7.178 9.631,17.5 1.749,3.3 5.4,9.739 8.113,14.31 2.713,4.57 6.282,10.814 7.932,13.875 4.033,7.48 6.929,9.13 13.222,7.531 4.468,-1.136 25.811,-11.439 34.778,-16.789 2.2,-1.313 4.584,-2.677 5.298,-3.032 1.5,-0.746 3.302,1.365 6.262,7.332 1.153,2.324 3.445,5.362 5.095,6.75 4.658,3.919 8.797,3.387 19.255,-2.479 4.901,-2.749 9.023,-4.998 9.16,-4.998 0.138,0 3.329,-1.734 7.09,-3.853 3.762,-2.119 9.54,-5.324 12.84,-7.122 7.632,-4.158 11.159,-7.462 12.589,-11.795 1.048,-3.174 0.803,-4.083 -3.182,-11.797 -2.374,-4.596 -4.112,-8.54 -3.862,-8.765 0.25,-0.225 7.205,-3.797 15.455,-7.939 13.672,-6.863 20.656,-10.179 33.5,-15.903 2.475,-1.104 5.482,-2.475 6.683,-3.049 3.438,-1.643 4.65,-0.489 7.202,6.858 2.809,8.084 5.176,11.003 10.126,12.487 3.029,0.907 4.449,0.754 8.56,-0.923 2.711,-1.106 9.429,-3.66 14.929,-5.675 11.099,-4.067 14.495,-5.345 22.383,-8.423 2.961,-1.156 5.952,-2.101 6.647,-2.101 0.694,0 2.659,-1.591 4.366,-3.535 3.854,-4.389 3.976,-7.766 0.616,-17.03 -1.368,-3.773 -2.156,-7.138 -1.75,-7.478 2.426,-2.034 29.96,-7.77 39.238,-8.174 l 6.5,-0.283 0.058,6.5 c 0.072,7.975 1.868,11.955 6.443,14.273 3.136,1.589 6.297,1.744 30.499,1.5 25.194,-0.255 27.181,-0.407 29.702,-2.273 3.858,-2.855 4.965,-6.232 5.142,-15.685 l 0.156,-8.315 7.482,0.315 c 4.115,0.174 7.583,0.417 7.708,0.541 0.258,0.258 2.308,13.63 5.274,34.394 6.488,45.416 6.243,43.659 10.977,78.75 3.336,24.732 7.898,64.521 10.147,88.5 0.645,6.875 1.488,28.475 1.873,48 0.684,34.717 0.755,35.632 3.179,41.494 1.811,4.381 3.539,6.736 6.419,8.751 7.242,5.066 12.647,5.944 39.762,6.462 25.56,0.488 30.097,0.048 43.179,-4.191 2.2,-0.713 7.6,-2.303 12,-3.535 4.4,-1.232 10.025,-2.853 12.5,-3.602 4.909,-1.486 23.239,-4.813 32,-5.808 3.025,-0.343 7.75,-1.039 10.5,-1.545 2.75,-0.507 11.3,-1.875 19,-3.042 38.613,-5.849 47.972,-8.43 51.487,-14.194 2.346,-3.849 2.634,-13.18 0.579,-18.79 -1.25,-3.411 -1.188,-3.589 2.459,-7 4.658,-4.358 6.512,-11.824 5.569,-22.44 -3.179,-35.833 -9.084,-65.988 -15.661,-79.978 -2.124,-4.52 -4.158,-6.113 -10.183,-7.978 -1.085,-0.335 -1.75,-1.539 -1.75,-3.167 0,-3.872 -3.996,-16.511 -6.231,-19.71 -3.121,-4.465 -8.215,-6.404 -18.277,-6.955 -7.116,-0.39 -10.11,-1.052 -14.252,-3.15 -10.312,-5.226 -26.024,-23.603 -46.273,-54.122 -5.109,-7.7 -10.193,-15.011 -11.298,-16.246 -1.106,-1.235 -1.785,-2.472 -1.509,-2.747 0.276,-0.276 3.165,-0.005 6.421,0.602 8.948,1.669 17.122,0.643 20.315,-2.551 l 2.604,-2.604 v -65.727 c 0,-67.346 -0.475,-77.765 -4.159,-91.139 -1.482,-5.381 -5.854,-14.669 -7.335,-15.584 -0.426,-0.264 -1.09,-2.579 -1.475,-5.145 -1.573,-10.488 -7.13,-14.717 -21.493,-16.355 -10.988,-1.253 -84.236,-1.192 -89.89,0.075 -5.265,1.18 -8.793,3.985 -10.733,8.533 -1.546,3.627 -4.328,4.359 -16.63,4.377 -6.996,0.01 -7.822,-0.198 -8.872,-2.239 -5.354,-10.409 -14.276,-12.181 -53.413,-10.606 l -16,0.643 -4.855,-3.555 c -9.936,-7.278 -25.15,-10.157 -43.645,-8.26 m 24.071,4.456 c 7.548,1.6 17.609,5.599 17.791,7.072 0.078,0.635 -4.345,0.874 -12.133,0.653 -7.175,-0.203 -14.857,0.165 -18.532,0.888 -5.357,1.054 -6.773,1.814 -9.659,5.185 -1.86,2.173 -3.767,5.598 -4.239,7.612 -0.854,3.644 -0.894,3.668 -8.329,4.976 -17.7,3.115 -33.771,6.26 -37.669,7.373 l -4.2,1.199 -4.3,-4.578 c -5.446,-5.797 -8.459,-6.479 -17.398,-3.937 -15.408,4.382 -55.613,19.828 -65.03,24.984 -1.03,0.564 -5.923,2.924 -10.873,5.244 -13.8,6.468 -18.318,9.707 -21.086,15.118 -1.328,2.594 -2.414,6.07 -2.414,7.725 0,2.848 -0.616,3.307 -11.549,8.603 l -11.549,5.594 -3.508,-2.069 c -6.466,-3.815 -11.906,-2.665 -34.894,7.381 -7.15,3.125 -17.725,8.239 -23.5,11.365 -5.775,3.126 -11.175,5.974 -12,6.328 -3.339,1.434 -19.924,11.664 -26.203,16.162 -5.203,3.728 -7.289,6.001 -9.323,10.157 -1.812,3.704 -3.532,5.732 -5.579,6.58 -1.627,0.675 -3.201,0.984 -3.497,0.689 -2.142,-2.143 10.559,-16.586 19.102,-21.722 2.2,-1.322 4.225,-2.71 4.5,-3.084 0.697,-0.948 27.224,-16.071 40.5,-23.09 18.463,-9.761 71.956,-36.121 94,-46.321 3.85,-1.782 9.925,-4.599 13.5,-6.262 3.575,-1.662 11.45,-5.128 17.5,-7.702 6.05,-2.574 11.9,-5.069 13,-5.545 26.962,-11.67 68.571,-26.82 86.5,-31.496 5.521,-1.44 23.89,-5.056 29.5,-5.808 6.623,-0.888 15.344,-0.594 21.571,0.726 m 33.434,10.769 c 3.847,0.058 13.295,-0.218 20.995,-0.612 15.134,-0.775 27.286,0.39 31.265,2.996 7.432,4.87 8.522,14.99 8.072,74.919 l -0.337,45 -4.5,0.334 c -2.475,0.183 -8.175,0.033 -12.666,-0.333 l -8.166,-0.667 -0.335,-11.167 C 467.466,258.46 466.18,254.408 462,252.294 c -3.535,-1.788 -55.425,-1.801 -59,-0.015 -4.414,2.205 -5.997,7.06 -5.998,18.399 l -0.002,10.178 -5.75,0.672 c -3.163,0.369 -7.55,1.054 -9.75,1.522 -2.421,0.514 -4.377,0.473 -4.955,-0.105 -1.371,-1.371 -1.94,-106.583 -0.581,-107.423 0.57,-0.352 1.036,-1.531 1.036,-2.621 0,-1.089 0.879,-3.704 1.954,-5.81 2.442,-4.787 6.693,-6.053 20.739,-6.179 5.394,-0.048 12.057,-0.447 14.807,-0.887 2.75,-0.439 6.577,-0.604 8.505,-0.366 1.928,0.239 6.653,0.481 10.5,0.538 m 194.569,0.626 c 5.171,1.698 7.876,5.127 10.144,12.857 1.86,6.338 2.036,10.586 2.489,60.099 l 0.488,53.279 -13.848,-0.279 L 613.5,286.5 613,273.269 c -0.485,-12.824 -0.585,-13.317 -3.271,-16 l -2.771,-2.769 -27.298,-0.294 c -16.87,-0.182 -28.321,0.095 -29.978,0.725 -5.083,1.932 -6.674,6.305 -6.678,18.352 L 543,284.066 531.75,283.783 520.5,283.5 l -0.8,-19 c -0.44,-10.45 -0.59,-35.65 -0.333,-56 0.462,-36.647 0.49,-37.043 2.854,-41.5 4.433,-8.355 2.765,-8.124 55.779,-7.712 31.986,0.248 47.616,0.727 50.074,1.535 M 515.95,183 c -0.248,5.775 -0.318,30.667 -0.157,55.316 l 0.293,44.817 -9.166,-0.317 -9.167,-0.316 -0.234,-51.5 c -0.129,-28.325 -0.571,-52.944 -0.984,-54.708 l -0.75,-3.208 8.358,-0.355 c 13.708,-0.582 12.323,-1.787 11.807,10.271 m -198.988,0.25 c 2.77,2.887 5.036,5.895 5.037,6.684 10e-4,0.789 0.867,3.264 1.925,5.5 4.262,9.006 17.076,42.982 17.076,45.277 0,0.562 0.841,3.22 1.868,5.906 1.027,2.685 2.643,7.358 3.589,10.383 0.947,3.025 2.519,7.75 3.494,10.5 2.351,6.634 4.749,14.384 5.452,17.618 0.534,2.457 0.218,2.719 -5.167,4.276 -5.832,1.687 -12.345,3.836 -15.457,5.099 -1.913,0.777 -2.702,-0.657 -7.344,-13.349 -2.436,-6.659 -3.071,-7.527 -6.706,-9.154 -3.695,-1.654 -4.421,-1.678 -9.122,-0.297 -2.809,0.826 -7.357,2.401 -10.107,3.501 -5.506,2.202 -9.233,3.614 -17.5,6.63 -22.585,8.239 -22.825,8.389 -23.671,14.848 -0.368,2.811 0.452,6.451 3.085,13.697 1.972,5.428 3.583,10.378 3.58,11 -0.005,1.106 -16.636,9.692 -18.533,9.568 -0.907,-0.059 -4.576,-7.226 -9.436,-18.437 -1.193,-2.75 -2.607,-5.815 -3.143,-6.811 -0.536,-0.996 -2.697,-5.721 -4.802,-10.5 -2.105,-4.779 -4.832,-10.939 -6.06,-13.689 -1.227,-2.75 -2.925,-6.575 -3.773,-8.5 -0.848,-1.925 -1.909,-4.255 -2.357,-5.178 -2.199,-4.519 -11.12,-28.369 -12.838,-34.322 -0.159,-0.55 -0.236,-2.924 -0.17,-5.276 0.1,-3.626 0.769,-4.927 4.394,-8.553 2.352,-2.352 6.289,-5.287 8.75,-6.523 2.461,-1.235 5.149,-2.666 5.974,-3.178 6.96,-4.322 33.783,-15.646 56.781,-23.971 27.125,-9.819 28.31,-9.912 35.181,-2.749 m 54.606,48.083 0.069,52.33 -5.528,1.16 c -3.04,0.637 -5.818,0.826 -6.174,0.418 -0.355,-0.408 -4.071,-11.091 -8.257,-23.741 -12.864,-38.872 -17.008,-50.436 -23.086,-64.417 -2.012,-4.629 -3.306,-8.706 -2.875,-9.061 1.057,-0.87 13.273,-3.535 27.283,-5.953 11.68,-2.015 15.703,-2.689 17.5,-2.931 0.655,-0.089 1.024,17.924 1.068,52.195 m 274.797,-38.592 c 2.403,10.252 3.659,28.535 4.328,63.009 L 651.3,287 h -3.056 -3.056 l -0.486,-45.25 c -0.294,-27.395 -0.919,-47.168 -1.585,-50.111 -1.083,-4.795 -0.761,-7.155 0.842,-6.164 0.452,0.279 1.534,3.549 2.406,7.266 m -441.293,48.551 c 1.158,4.322 11.248,30.495 12.923,33.519 0.514,0.929 1.889,3.939 3.056,6.689 2.784,6.563 5.435,12.415 9.568,21.123 1.86,3.917 3.381,7.386 3.381,7.708 0,0.322 2.25,5.262 5,10.977 2.75,5.715 5,10.678 5,11.03 0,0.589 -15.33,8.662 -16.448,8.662 -0.557,0 -3.396,-6.053 -11.022,-23.5 -11.141,-25.49 -28.324,-60.593 -32.598,-66.595 -1.063,-1.493 -1.932,-3.2 -1.932,-3.793 0,-1.211 20.091,-11.098 21.223,-10.445 0.397,0.23 1.23,2.311 1.849,4.625 m -29.923,3.963 c 5.111,4.331 19.452,31.635 34.533,65.745 1.338,3.025 2.849,6.4 3.359,7.5 0.51,1.1 3.143,7.061 5.851,13.247 l 4.924,11.247 -2.658,1.839 c -4.603,3.183 -19.433,10.275 -20.57,9.837 -0.598,-0.231 -2.569,-3.288 -4.38,-6.795 C 187.257,330.543 186.772,330 180.21,330 c -3.193,0 -6.241,1.007 -11.059,3.655 -27.074,14.877 -38.892,21.757 -40.401,23.521 -3.013,3.522 -2.271,9.91 2.112,18.184 2.124,4.009 4.638,8.473 5.586,9.921 0.949,1.447 1.482,3.023 1.186,3.502 -0.296,0.478 -4.146,2.753 -8.556,5.054 l -8.018,4.185 -1.386,-2.261 c -0.763,-1.244 -3.497,-6.086 -6.076,-10.761 -2.578,-4.675 -5.103,-9.175 -5.609,-10 -0.507,-0.825 -2.236,-3.975 -3.843,-7 -1.607,-3.025 -6.13,-11.35 -10.051,-18.5 C 84.083,331.246 75.186,313.085 72.529,305.482 l -2.26,-6.469 2.273,-4.907 c 3.269,-7.056 12.713,-13.668 40.958,-28.674 12.851,-6.828 16.734,-8.685 32.5,-15.541 17.251,-7.503 24.421,-8.643 29.149,-4.636 M 459,254.892 c 4.847,1.343 5.087,3.298 5.516,44.865 0.26,25.207 0.036,39.885 -0.641,42.01 -1.859,5.832 -3.878,6.233 -31.375,6.233 -26.475,0 -29.62,-0.53 -31.415,-5.298 -1.304,-3.461 -0.464,-82.125 0.904,-84.681 0.628,-1.174 2.125,-2.53 3.326,-3.014 2.56,-1.031 50.011,-1.133 53.685,-0.115 m 145.971,3.86 c 2.034,1.024 3.753,2.783 4.151,4.248 1.111,4.092 0.983,78.082 -0.143,82.135 -1.589,5.72 -3.201,6.003 -32.279,5.664 -25.161,-0.293 -25.691,-0.342 -27.924,-2.576 l -2.276,-2.277 -0.283,-40.185 c -0.209,-29.628 0.033,-40.949 0.921,-43.093 2.095,-5.059 4.983,-5.586 30.862,-5.627 20.432,-0.033 23.953,0.19 26.971,1.711 M 320.698,276.25 c 1.126,1.238 3.256,5.4 4.733,9.25 1.478,3.85 3.611,9.225 4.74,11.946 1.129,2.72 4.428,11.72 7.331,20 2.903,8.279 6.261,17.304 7.463,20.054 3.353,7.67 6.039,15.709 6.002,17.965 -0.067,4.071 -3.455,6.14 -19.47,11.891 -8.798,3.16 -18.022,6.572 -20.497,7.583 -9.203,3.76 -10.153,4.061 -12.825,4.061 -4.772,0 -6.712,-2.416 -10.605,-13.208 -2.042,-5.66 -4.608,-12.767 -5.702,-15.792 -1.094,-3.025 -2.59,-6.85 -3.325,-8.5 -2.234,-5.016 -5.077,-12.848 -13.142,-36.213 -2.302,-6.668 -2.377,-7.433 -0.985,-10.125 1.247,-2.41 3.276,-3.554 11.795,-6.648 5.659,-2.056 12.989,-4.764 16.289,-6.02 3.3,-1.255 9.6,-3.652 14,-5.325 9.712,-3.695 11.564,-3.815 14.198,-0.919 m 75.845,11.066 c 0.32,1.274 0.441,4.537 0.269,7.25 l -0.312,4.934 -9.5,1.326 c -5.225,0.729 -16.925,3.135 -26,5.346 -9.075,2.212 -17.625,4.234 -19,4.494 -2.29,0.433 -2.684,-0.058 -4.684,-5.829 -1.624,-4.688 -1.88,-6.496 -1,-7.062 4.156,-2.67 26.543,-8.346 42.184,-10.695 16.858,-2.531 17.35,-2.525 18.043,0.236 m 117.707,0.314 27.75,0.688 v 12.341 c 0,6.788 -0.307,12.341 -0.682,12.341 -0.375,0 -4.087,-0.862 -8.25,-1.916 -13.389,-3.39 -43.216,-8.643 -54.568,-9.61 -10.822,-0.922 -10.5,-0.68 -10.5,-7.875 0,-3.446 0.337,-6.618 0.75,-7.048 0.413,-0.43 4.575,-0.519 9.25,-0.196 4.675,0.322 20.988,0.896 36.25,1.275 M 636.217,291 h 14.967 l -0.342,23.918 c -0.188,13.155 -0.658,24.233 -1.045,24.619 -0.609,0.609 -12.647,-2.235 -30.547,-7.218 L 614,330.858 v -19.762 c 0,-10.87 0.334,-20.097 0.743,-20.506 0.409,-0.408 2.04,-0.483 3.625,-0.166 1.585,0.317 9.617,0.576 17.849,0.576 M 69.476,307.25 c 1.784,6.113 10.655,24.68 19.262,40.315 3.31,6.014 7.345,13.41 8.966,16.435 6.401,11.946 12.938,23.558 17.016,30.229 1.254,2.05 2.28,4.149 2.28,4.663 C 117,399.951 96.576,411 94.619,411 93.346,411 77.358,384.493 69.588,369.5 68.733,367.85 66.164,363.125 63.88,359 61.596,354.875 57.988,347.119 55.863,341.765 52.579,333.489 52,330.899 52,324.475 c 0,-8.17 1.791,-13.148 6.153,-17.103 2.324,-2.108 7.677,-5.255 9.069,-5.332 0.397,-0.022 1.411,2.323 2.254,5.21 M 397,314.448 v 10.329 l -3.25,0.577 c -1.788,0.317 -5.725,0.852 -8.75,1.189 -7.946,0.885 -23.735,4.13 -29.198,6.001 -7.552,2.586 -8.701,1.983 -11.519,-6.044 -3.943,-11.228 -3.942,-11.138 -0.129,-12.31 18.705,-5.75 49.14,-11.843 52.096,-10.43 0.413,0.197 0.75,5.006 0.75,10.688 m 96,-7.347 c 11.031,1.894 29.241,5.377 43,8.224 l 6.5,1.345 0.544,15.415 c 0.299,8.478 0.927,16.246 1.394,17.262 0.468,1.017 2.765,2.668 5.105,3.671 3.837,1.645 4.323,2.249 4.948,6.153 0.382,2.381 1.522,7.929 2.533,12.329 1.012,4.4 2.573,11.375 3.469,15.5 3.857,17.756 9.141,34.326 14.541,45.603 4.234,8.841 12.17,17.255 19.559,20.739 9.305,4.387 14.006,7.15 15.407,9.058 3.834,5.221 5.26,11.088 5.757,23.688 l 0.497,12.588 -8.377,1.566 c -4.607,0.862 -13.226,2.385 -19.153,3.385 -9.279,1.566 -11.154,2.212 -13.493,4.653 -4.094,4.274 -3.702,9.703 3.306,45.743 0.805,4.137 1.466,8.637 1.469,10 0.01,4.632 2.175,10.312 5.011,13.148 3.398,3.398 6.408,3.577 19.124,1.139 4.847,-0.929 9.001,-1.491 9.23,-1.25 0.756,0.8 -1.377,20.313 -3.001,27.44 -0.877,3.85 -2.894,9.305 -4.482,12.122 -1.588,2.817 -2.888,5.828 -2.888,6.691 0,4.119 -10.868,5.694 -39,5.652 -32.925,-0.049 -39.769,-1.906 -45.225,-12.273 -2.1,-3.991 -2.238,-5.777 -2.868,-37.192 -0.805,-40.074 -2.745,-64.678 -8.951,-113.5 -1.084,-8.525 -2.658,-20.9 -3.499,-27.5 -2.177,-17.091 -7.296,-54.214 -10.549,-76.5 -5.793,-39.692 -5.321,-37.396 -7.965,-38.734 -1.344,-0.68 -5.705,-1.243 -9.693,-1.251 L 468,322 v -9.08 -9.079 l 6.75,0.643 c 3.712,0.353 11.925,1.531 18.25,2.617 m -221.611,26.607 c 1.912,5.589 1.588,7.292 -1.389,7.292 -1.035,0 -2.107,0.364 -2.381,0.808 -0.275,0.444 -4.914,2.998 -10.309,5.674 -5.396,2.676 -17.729,9.288 -27.407,14.692 -9.678,5.404 -18.003,9.821 -18.5,9.814 -1.373,-0.018 -7.633,-11.946 -7.057,-13.447 0.277,-0.723 5.15,-3.645 10.829,-6.495 5.679,-2.849 12.8,-6.474 15.825,-8.056 3.025,-1.581 12.475,-6.252 21,-10.379 11.735,-5.681 15.756,-7.213 16.553,-6.307 0.58,0.658 1.856,3.539 2.836,6.404 m -87.561,1.042 c 1.127,0.962 3.26,4 4.74,6.75 2.575,4.785 15.537,27.372 17.504,30.5 0.948,1.509 2.252,4.22 3.367,7 0.33,0.825 1.604,3.167 2.831,5.204 8.365,13.893 12.73,22.442 12.73,24.933 0,3.896 -2.044,5.675 -14.122,12.294 -5.708,3.128 -11.053,6.104 -11.878,6.613 -0.825,0.509 -2.85,1.605 -4.5,2.434 -1.65,0.829 -6.15,3.294 -10,5.477 -7.328,4.156 -10.858,4.849 -13.698,2.691 -0.934,-0.71 -4.272,-6.208 -7.418,-12.218 -3.146,-6.01 -6.994,-12.809 -8.552,-15.108 -1.557,-2.299 -2.832,-4.44 -2.832,-4.758 0,-0.566 -4.486,-8.731 -16.158,-29.411 -3.351,-5.936 -5.842,-11.57 -5.842,-13.211 0,-3.373 2.677,-6.152 9,-9.346 2.475,-1.25 11.7,-6.322 20.5,-11.271 20.744,-11.665 20.717,-11.656 24.328,-8.573 m 443.405,3.256 c 23.382,6.237 23.767,6.371 23.767,8.232 0,0.969 -0.9,2.662 -2,3.762 -1.786,1.786 -3.333,2 -14.441,2 -6.984,0 -12.705,-0.427 -13.042,-0.973 -0.331,-0.535 -2.382,-1.452 -4.559,-2.038 L 613,347.923 v -6.462 c 0,-5.044 0.325,-6.461 1.483,-6.461 0.816,0 6.554,1.353 12.75,3.006 m -350.612,7.744 c 0.363,1.512 1.208,3.875 1.879,5.25 0.671,1.375 1.5,3.673 1.843,5.107 0.583,2.438 0.185,2.791 -6.11,5.433 -10.877,4.565 -24.765,11.057 -39.581,18.502 -7.616,3.827 -14.44,6.958 -15.164,6.958 -1.325,0 -6.495,-8.28 -6.48,-10.376 0.005,-0.618 2.143,-2.28 4.75,-3.692 2.608,-1.413 9.692,-5.314 15.742,-8.669 16.515,-9.16 39.836,-21.159 41.231,-21.214 0.677,-0.027 1.528,1.189 1.89,2.701 m 343.39,8.89 c 0.982,1.023 7.961,11.085 15.509,22.36 7.548,11.275 16.669,24.278 20.27,28.896 8.844,11.342 20.11,22.249 26.299,25.46 4.474,2.322 6.267,2.644 14.703,2.644 11.753,0 11.477,1.82 -0.459,3.027 -7.586,0.767 -12.362,1.773 -37.833,7.97 -6.6,1.606 -13.8,3.223 -16,3.593 -2.2,0.37 -4.722,1.045 -5.605,1.499 -0.883,0.455 -4.658,1.314 -8.389,1.91 -6.393,1.021 -6.99,0.948 -10.394,-1.274 -1.987,-1.297 -6.689,-3.785 -10.451,-5.53 -8.512,-3.949 -14.025,-9.637 -18.903,-19.502 -3.523,-7.124 -9.856,-24.252 -11.718,-31.693 -0.482,-1.925 -2.041,-8 -3.466,-13.5 -2.542,-9.817 -5.572,-23.272 -5.573,-24.75 -10e-4,-0.413 8.211,-0.766 18.249,-0.785 14.308,-0.028 18.79,-0.357 20.75,-1.522 3.278,-1.948 10.64,-1.271 13.011,1.197 m -55.391,5.86 c 0.699,2.75 2.46,9.95 3.912,16 2.96,12.338 2.901,12.13 8.466,29.846 8.024,25.544 15.207,35.758 30.438,43.28 10.187,5.032 15.79,10.049 19.164,17.16 3.043,6.412 7.4,21.321 7.4,25.321 0,2.348 -0.468,2.685 -4.499,3.238 -2.475,0.339 -5.561,0.883 -6.858,1.208 -2.349,0.59 -2.36,0.55 -2.94,-10.73 -1.054,-20.474 -4.586,-26.599 -19.53,-33.868 -14.411,-7.009 -22.618,-17.664 -28.463,-36.955 -3.523,-11.624 -5.49,-18.683 -6.551,-23.5 -3.313,-15.043 -6.1,-28.509 -6.691,-32.326 -0.661,-4.274 -0.636,-4.322 2.105,-4 2.411,0.283 2.941,0.981 4.047,5.326 M 143.179,399 c 1.613,3.025 3.358,5.928 3.877,6.45 2.012,2.025 0.953,5.175 -2.306,6.859 -1.787,0.924 -5.95,3.387 -9.25,5.475 -26.015,16.456 -28.675,17.644 -30.193,13.489 -0.355,-0.975 -2.091,-4.059 -3.855,-6.852 -1.765,-2.794 -3.503,-6.006 -3.862,-7.137 -0.721,-2.272 -0.045,-2.72 20.91,-13.86 6.05,-3.217 12.8,-6.85 15,-8.074 2.2,-1.224 4.618,-2.142 5.373,-2.038 0.756,0.103 2.693,2.663 4.306,5.688 m 9.816,16.25 c 0.812,1.238 2.02,3.48 2.686,4.984 1.183,2.675 1.073,2.815 -4.986,6.413 -10.254,6.09 -28.008,15.067 -32.396,16.382 -5.415,1.622 -8.902,0.64 -10.806,-3.043 -1.534,-2.967 -1.526,-2.986 1.231,-3.018 1.604,-0.018 6.787,-2.52 12.276,-5.925 5.225,-3.241 13.448,-8.237 18.273,-11.1 4.825,-2.864 9.014,-5.598 9.309,-6.075 0.95,-1.538 2.898,-0.927 4.413,1.382 m 560.562,25.196 c 2.473,3.774 6.633,19.819 5.345,20.615 -0.591,0.365 -4.158,0.922 -7.927,1.238 -12.593,1.056 -37.186,6.217 -58.791,12.339 -17.332,4.91 -18.125,4.921 -18.169,0.239 -0.019,-2.099 -3.754,-10.616 -6.151,-14.031 -2.682,-3.82 -2.369,-4.51 2.386,-5.267 2.337,-0.372 10.775,-2.246 18.75,-4.164 16.586,-3.99 23.812,-5.677 36.5,-8.522 4.95,-1.11 11.475,-2.621 14.5,-3.359 8.689,-2.118 11.704,-1.916 13.557,0.912 m 15.293,26.081 c 2.143,1.803 3.716,4.743 5.488,10.25 4.497,13.984 8.817,35.73 11.139,56.068 3.292,28.843 1.218,37.108 -9.477,37.764 -1.925,0.118 -8.675,1.157 -15,2.309 -6.325,1.151 -18.25,3.228 -26.5,4.614 -8.25,1.387 -20.175,3.397 -26.5,4.468 -6.325,1.072 -13.075,2.072 -15,2.224 l -3.5,0.276 -0.862,-5.738 c -1.075,-7.161 -0.492,-8.762 3.191,-8.762 1.591,0 7.343,-0.868 12.782,-1.929 5.439,-1.061 11.644,-2.219 13.789,-2.574 2.33,-0.385 5.049,-1.792 6.75,-3.494 4.363,-4.362 4.11,-8.085 -3.184,-47.003 -1.082,-5.775 -1.967,-11.497 -1.967,-12.716 0.002,-4.398 -3.16,-9.131 -7.172,-10.737 -4.156,-1.663 -9.681,-1.233 -24.642,1.914 -9.975,2.099 -9.826,2.137 -10.536,-2.711 -0.342,-2.337 -0.884,-5.18 -1.204,-6.316 -0.516,-1.831 0.139,-2.246 5.736,-3.641 3.476,-0.866 11.494,-2.916 17.819,-4.554 16.46,-4.265 23.792,-5.835 38.5,-8.24 7.15,-1.169 15.025,-2.485 17.5,-2.925 7.829,-1.39 9.726,-1.175 12.85,1.453 m -55.371,29.861 c 1.314,1.314 2.61,3.901 2.88,5.75 1.458,9.967 4.075,25.575 5.798,34.58 1.076,5.621 2.043,12.733 2.149,15.805 0.265,7.641 -0.997,8.43 -18.056,11.293 -7.563,1.269 -16.267,2.958 -19.343,3.753 -3.076,0.796 -8.701,1.875 -12.5,2.399 -10.472,1.444 -19.785,2.922 -31.713,5.03 -7.314,1.293 -11.58,1.616 -13.202,0.999 -2.841,-1.08 -5.496,-5.777 -5.482,-9.697 0.005,-1.54 -0.86,-7.3 -1.924,-12.8 -2.839,-14.681 -4.949,-27.229 -5.676,-33.75 -1.013,-9.096 0.021,-10.013 14.269,-12.65 24.116,-4.463 50.057,-9.052 57.821,-10.228 4.4,-0.667 10.025,-1.525 12.5,-1.908 8.196,-1.269 9.991,-1.064 12.479,1.424 m -28.458,80.862 c 0.011,2.337 0.672,9.65 1.469,16.25 0.796,6.6 1.462,13.596 1.479,15.546 l 0.031,3.547 -7.75,1.766 c -7.746,1.764 -16.667,4.289 -27.504,7.785 -7.47,2.41 -8.537,2.34 -6.037,-0.394 5.005,-5.474 8.184,-16.052 9.682,-32.214 l 1.109,-11.965 10,-2.194 c 5.5,-1.207 11.688,-2.236 13.75,-2.286 L 645,573 l 0.021,4.25 m 93.649,2.25 c 2.082,8.06 1.732,13.774 -1.002,16.342 -2.519,2.367 -12.251,6.158 -15.807,6.158 -1.204,0 -6.052,0.661 -10.775,1.47 -4.722,0.808 -14.886,2.411 -22.586,3.562 -7.7,1.151 -17.889,2.739 -22.643,3.53 -14.518,2.415 -13.468,3.031 -14.169,-8.312 -0.332,-5.362 -0.9,-10.763 -1.263,-12 -0.586,-2.004 -0.306,-2.25 2.559,-2.25 1.769,0 8.459,-0.91 14.867,-2.022 6.407,-1.113 17.049,-2.93 23.649,-4.039 20.877,-3.509 29.826,-5.111 36,-6.444 9.094,-1.965 9.682,-1.754 11.17,4.005 M 200.831,799.75 c 109.633,0.14 288.733,0.14 398,0 109.268,-0.14 19.569,-0.255 -199.331,-0.255 -218.9,0 -308.301,0.115 -198.669,0.255"
     stroke="none"
     fill="#000000"
     fill-rule="evenodd"
     id="path1"
     clip-path="url(#clipPath1)"
     style="fill:#ffffff;fill-opacity:1"
     transform="matrix(-1,0,0,1,819.56379,0)" />
</svg>
